<?xml version="1.0" standalone="no"?><!DOCTYPE svg PUBLIC "-//W3C//DTD SVG 1.1//EN" "http://www.w3.org/Graphics/SVG/1.1/DTD/svg11.dtd"><svg t="1529601949698" class="icon" style="" viewBox="0 0 1024 1024" version="1.1" xmlns="http://www.w3.org/2000/svg" p-id="2220" xmlns:xlink="http://www.w3.org/1999/xlink" width="200" height="200"><defs><style type="text/css"></style></defs><path d="M507.271302 265.412882l101.391225 0 0 134.276193-101.391225 0 0-134.276193Z" p-id="2221" fill="#d81e06"></path><path d="M507.271302 443.532629l101.391225 0 0 117.833709-101.391225 0 0-117.833709Z" p-id="2222" fill="#d81e06"></path><path d="M660.730393 443.532629l98.651834 0 0 117.833709-98.651834 0 0-117.833709Z" p-id="2223" fill="#d81e06"></path><path d="M660.730393 265.412882l98.651834 0 0 134.276193-98.651834 0 0-134.276193Z" p-id="2224" fill="#d81e06"></path><path d="M879.766015 63.409169 142.078903 63.409169c-43.101657 0-78.359672 35.258015-78.359672 78.358649l0 737.688135c0 43.101657 35.258015 78.359672 78.359672 78.359672l737.688135 0c43.100634 0 78.359672-35.258015 78.359672-78.359672L958.12671 141.767817C958.127733 98.667184 922.866648 63.409169 879.766015 63.409169zM408.619468 391.46681c-32.882921-1.797949-54.807257-2.740414-65.767889-2.740414L342.851579 492.858034c21.922289-7.278777 42.903136-14.600533 63.027475-21.922289-1.840928 9.162684-1.840928 24.662703 0 46.584991-23.763217 7.321756-44.787042 14.643512-63.027475 21.922289l0 213.745129c0 18.241456-5.951549 30.143531-17.812691 35.624359-11.903098 5.480828-39.73498 12.759605-83.579557 21.922289-3.682879-20.12434-11.903098-40.205701-24.662703-60.287061 36.523845 0 57.546647-1.797949 63.027475-5.480828 5.480828-3.6399 8.221242-10.019191 8.221242-19.182898L288.045345 555.886533c-34.724873 14.643512-59.387575 27.403117-73.988108 38.363749-7.321756-20.081361-16.441461-40.161698-27.403117-60.287061 18.241456-1.797949 52.065819-10.960633 101.392248-27.403117L288.046369 388.726396c-34.724873 0-65.767889 0.941442-93.171006 2.740414l0-49.326429c18.241456 1.840928 49.325405 2.740414 93.171006 2.740414-0.001023-82.20935-0.942465-134.276193-2.740414-156.198481l60.287061 0c-1.840928 20.12434-2.740414 72.190159-2.740414 156.198481 18.23941 0 40.161698-0.898463 65.767889-2.740414L408.619468 391.46681 408.619468 391.46681zM759.38018 649.057539l0-41.104163-98.651834 0 0 104.131639c0 36.5658 0.899486 74.887594 2.739391 115.093295l-57.546647 0c0-40.205701 0.899486-78.527494 2.739391-115.093295l0-104.131639-101.391225 0 0 38.363749-54.807257 0c0-38.363749 0.898463-76.729545 2.740414-115.093295L455.202413 322.959529c-1.840928-34.681894-2.740414-69.40779-2.740414-104.132662l358.982978 0c-1.839905 32.883945-2.739391 68.50728-2.739391 106.872053l0 205.525933c0 40.205701 0.899486 79.468936 2.740414 117.832685L759.38018 649.057539z" p-id="2225" fill="#d81e06"></path></svg>