<?xml version="1.0" standalone="no"?><!DOCTYPE svg PUBLIC "-//W3C//DTD SVG 1.1//EN" "http://www.w3.org/Graphics/SVG/1.1/DTD/svg11.dtd"><svg t="1529597053717" class="icon" style="" viewBox="0 0 1024 1024" version="1.1" xmlns="http://www.w3.org/2000/svg" p-id="1527" xmlns:xlink="http://www.w3.org/1999/xlink" width="200" height="200"><defs><style type="text/css"></style></defs><path d="M441.6 902.4L512 1024l70.4-121.6c217.6-32 377.6-224 377.6-448C960 204.8 761.6 0 512 0S64 204.8 64 454.4c0 230.4 166.4 416 377.6 448z" fill="#FFB75D" p-id="1528"></path><path d="M512 128C332.8 128 185.6 275.2 185.6 460.8c0 179.2 147.2 332.8 332.8 332.8s332.8-147.2 332.8-332.8C844.8 275.2 697.6 128 512 128z m115.2 460.8l-6.4 12.8c-6.4 6.4-19.2 6.4-32 0L486.4 499.2c-6.4 0-12.8-12.8-12.8-19.2V275.2c0-12.8 6.4-19.2 19.2-19.2h12.8c6.4-6.4 12.8 0 19.2 0s6.4 6.4 6.4 12.8v185.6l102.4 102.4c0 12.8 0 25.6-6.4 32z" fill="#FFFFFF" p-id="1529"></path></svg>